<svg width="196" height="39" viewBox="0 0 196 39" fill="none" xmlns="http://www.w3.org/2000/svg">
  <path d="M178.381 19.9716C176.302 19.9716 174.453 19.6879 172.836 19.1206C171.218 18.5343 169.938 17.6927 168.994 16.5958C168.07 15.4989 167.608 14.175 167.608 12.6242C167.608 10.9977 168.07 9.63602 168.994 8.53911C169.938 7.44219 171.218 6.6195 172.836 6.07104C174.453 5.52259 176.302 5.24836 178.381 5.24836C180.692 5.24836 182.685 5.56041 184.36 6.18452C186.055 6.78971 187.354 7.65023 188.259 8.76606C189.184 9.86297 189.646 11.149 189.646 12.6242C189.646 13.7211 189.386 14.7235 188.866 15.6312C188.346 16.5201 187.595 17.2955 186.613 17.9575C185.631 18.6005 184.447 19.1017 183.06 19.461C181.674 19.8014 180.114 19.9716 178.381 19.9716ZM180.981 15.6596C182.444 15.6596 183.783 15.5745 184.996 15.4043C186.228 15.2152 187.21 14.9031 187.942 14.4681C188.693 14.0331 189.068 13.4185 189.068 12.6242C189.068 11.8109 188.693 11.1868 187.942 10.7519C187.21 10.3169 186.228 10.0143 184.996 9.84406C183.783 9.67385 182.444 9.58874 180.981 9.58874C179.017 9.58874 177.496 9.84406 176.417 10.3547C175.339 10.8464 174.8 11.6029 174.8 12.6242C174.8 13.2861 175.041 13.844 175.522 14.2979C176.003 14.7518 176.706 15.0922 177.63 15.3192C178.555 15.5461 179.672 15.6596 180.981 15.6596ZM189.068 5.67389H196V19.5745H189.472C189.472 19.5745 189.434 19.357 189.357 18.922C189.299 18.487 189.232 17.8629 189.155 17.0497C189.097 16.2364 189.068 15.2814 189.068 14.1844V5.67389Z" fill="white"/>
  <path d="M151.619 5.67389H158.551V19.5745H151.619V5.67389ZM166.003 10.9221C164.751 10.9221 163.606 11.0355 162.566 11.2625C161.526 11.4894 160.64 11.7637 159.909 12.0852C159.177 12.3878 158.628 12.6904 158.262 12.993L158.205 11.6313C158.262 11.2341 158.416 10.7708 158.667 10.2412C158.917 9.69276 159.254 9.13485 159.678 8.56748C160.101 7.98119 160.621 7.44219 161.237 6.95047C161.853 6.43983 162.556 6.03322 163.346 5.73062C164.154 5.40911 165.04 5.24836 166.003 5.24836V10.9221Z" fill="white"/>
  <path d="M142.429 14.5816H149.246C149.072 15.6785 148.514 16.6336 147.57 17.4468C146.646 18.2601 145.289 18.8936 143.498 19.3475C141.726 19.7825 139.464 20 136.71 20C133.803 20 131.29 19.7731 129.172 19.3192C127.073 18.8653 125.456 18.0993 124.32 17.0213C123.184 15.9433 122.615 14.487 122.615 12.6525C122.615 10.837 123.164 9.39017 124.262 8.31216C125.379 7.21524 126.986 6.43038 129.085 5.95757C131.184 5.48476 133.726 5.24836 136.71 5.24836C139.637 5.24836 142.034 5.50367 143.902 6.01431C145.77 6.52494 147.147 7.35708 148.032 8.51074C148.918 9.64548 149.342 11.1868 149.303 13.1348H129.663C129.759 13.6265 130.029 14.0804 130.472 14.4965C130.934 14.9126 131.637 15.253 132.58 15.5178C133.543 15.7636 134.823 15.8866 136.422 15.8866C138.077 15.8866 139.435 15.7731 140.494 15.5461C141.572 15.3192 142.217 14.9977 142.429 14.5816ZM136.422 9.3618C134.38 9.3618 132.821 9.57929 131.742 10.0143C130.683 10.4493 130.058 10.8842 129.865 11.3192H142.574C142.439 10.8275 141.9 10.3831 140.956 9.9859C140.013 9.56983 138.501 9.3618 136.422 9.3618Z" fill="white"/>
  <path d="M101.685 19.9715C99.6057 19.9715 97.7572 19.6878 96.1397 19.1204C94.5223 18.5341 93.2418 17.6925 92.2983 16.5956C91.3741 15.4987 90.9119 14.1748 90.9119 12.624C90.9119 10.9975 91.3741 9.63585 92.2983 8.53893C93.2418 7.44201 94.5223 6.61933 96.1397 6.07087C97.7572 5.52241 99.6057 5.24818 101.685 5.24818C103.418 5.24818 104.978 5.42785 106.364 5.78718C107.751 6.12761 108.935 6.62878 109.917 7.29072C110.899 7.93374 111.65 8.70914 112.17 9.61694C112.69 10.5247 112.95 11.5271 112.95 12.624C112.95 13.7209 112.69 14.7233 112.17 15.6311C111.65 16.5199 110.899 17.2954 109.917 17.9573C108.935 18.6003 107.751 19.1015 106.364 19.4608C104.978 19.8012 103.418 19.9715 101.685 19.9715ZM104.285 15.6594C105.748 15.6594 107.086 15.5743 108.299 15.4041C109.532 15.215 110.514 14.9029 111.246 14.468C111.996 14.033 112.372 13.4183 112.372 12.624C112.372 11.8108 111.996 11.1867 111.246 10.7517C110.514 10.3167 109.532 10.0141 108.299 9.84388C107.086 9.67367 105.748 9.58857 104.285 9.58857C102.321 9.58857 100.8 9.84388 99.7212 10.3545C98.6429 10.8462 98.1038 11.6027 98.1038 12.624C98.1038 13.2859 98.3445 13.8438 98.8259 14.2977C99.3073 14.7516 100.01 15.0921 100.934 15.319C101.859 15.546 102.975 15.6594 104.285 15.6594ZM112.372 0H119.304V19.5743H112.776C112.699 19.1393 112.613 18.4396 112.516 17.475C112.42 16.4916 112.372 15.3947 112.372 14.1843V0Z" fill="white"/>
  <path d="M62.3755 5.67389H69.3074V19.5745H62.3755V5.67389ZM79.7053 5.24836C80.8414 5.24836 81.9389 5.37129 82.998 5.61715C84.057 5.8441 85.0005 6.24126 85.8285 6.80863C86.6757 7.376 87.3497 8.1514 87.8503 9.13485C88.3509 10.1183 88.6012 11.3571 88.6012 12.8511V19.5745H81.6693V13.7022C81.6693 12.2838 81.2939 11.2814 80.5429 10.6951C79.7919 10.0899 78.4345 9.78732 76.4704 9.78732C75.4306 9.78732 74.4197 9.9008 73.4377 10.1277C72.4749 10.3547 71.6085 10.6289 70.8382 10.9504C70.068 11.253 69.4615 11.5556 69.0186 11.8582L68.9608 10.7802C69.0379 10.4398 69.2978 9.96699 69.7407 9.3618C70.2028 8.73769 70.8671 8.11358 71.7336 7.48947C72.6001 6.86536 73.688 6.33582 74.9974 5.90083C76.326 5.46585 77.8953 5.24836 79.7053 5.24836Z" fill="white"/>
  <path d="M46.4706 20C43.409 20 40.8577 19.7541 38.8166 19.2624C36.7948 18.7707 35.2736 17.9858 34.2531 16.9078C33.2518 15.8298 32.7512 14.4114 32.7512 12.6525C32.7512 10.8937 33.2518 9.47527 34.2531 8.39727C35.2736 7.30035 36.7948 6.50603 38.8166 6.01431C40.8577 5.50367 43.409 5.24836 46.4706 5.24836C49.5129 5.24836 52.0354 5.50367 54.0379 6.01431C56.0597 6.50603 57.5713 7.30035 58.5725 8.39727C59.5738 9.47527 60.0744 10.8937 60.0744 12.6525C60.0744 14.4114 59.5738 15.8298 58.5725 16.9078C57.5713 17.9858 56.0597 18.7707 54.0379 19.2624C52.0354 19.7541 49.5129 20 46.4706 20ZM46.4706 15.8866C47.8955 15.8866 49.0893 15.7731 50.0521 15.5461C51.0148 15.3003 51.7465 14.9409 52.2472 14.4681C52.7478 13.9764 52.9981 13.3712 52.9981 12.6525C52.9981 11.9339 52.7478 11.3287 52.2472 10.837C51.7658 10.3452 51.0437 9.97645 50.0809 9.73059C49.1182 9.48473 47.9147 9.3618 46.4706 9.3618C45.0457 9.3618 43.8326 9.48473 42.8313 9.73059C41.8493 9.97645 41.0984 10.3452 40.5785 10.837C40.0778 11.3098 39.8275 11.915 39.8275 12.6525C39.8275 13.3712 40.0778 13.9764 40.5785 14.4681C41.0791 14.9409 41.8204 15.3003 42.8024 15.5461C43.8037 15.7731 45.0264 15.8866 46.4706 15.8866Z" fill="white"/>
  <path d="M6.75861 14.8934V9.92889H21.1712C21.7489 9.92889 22.2302 9.84379 22.6153 9.67357C23.0197 9.48445 23.2219 9.09675 23.2219 8.51046C23.2219 7.90527 23.0197 7.51757 22.6153 7.34735C22.2302 7.17714 21.7489 7.09204 21.1712 7.09204H7.22073V19.5742H0V1.41833H20.0448C21.4889 1.41833 22.8368 1.52235 24.0884 1.73038C25.3592 1.91951 26.4664 2.26938 27.4099 2.78002C28.3534 3.29065 29.0947 4.00932 29.6339 4.93603C30.173 5.86273 30.4426 7.05421 30.4426 8.51046C30.4426 9.96672 30.173 11.1204 29.6339 11.9714C29.0947 12.8225 28.3534 13.456 27.4099 13.8721C26.4664 14.2882 25.3592 14.5624 24.0884 14.6948C22.8368 14.8272 21.4889 14.8934 20.0448 14.8934H6.75861Z" fill="white"/>
  <path fill-rule="evenodd" clip-rule="evenodd" d="M59 33L59 29L1 31L59 33Z" fill="#01E3F5"/>
  <path d="M64.0043 36V25.8182H67.902C68.6378 25.8182 69.2493 25.9342 69.7365 26.1662C70.227 26.3949 70.5933 26.7081 70.8352 27.1058C71.0805 27.5036 71.2031 27.9543 71.2031 28.4581C71.2031 28.8724 71.1236 29.227 70.9645 29.522C70.8054 29.8137 70.5916 30.0507 70.3232 30.233C70.0547 30.4152 69.7547 30.5462 69.4233 30.6257V30.7251C69.7846 30.745 70.1309 30.8561 70.4624 31.0582C70.7971 31.2571 71.0705 31.5388 71.2827 31.9034C71.4948 32.268 71.6009 32.7088 71.6009 33.2259C71.6009 33.7528 71.4732 34.2268 71.218 34.6477C70.9628 35.0653 70.5784 35.3951 70.0646 35.6371C69.5509 35.879 68.9046 36 68.1257 36H64.0043ZM65.8487 34.4588H67.8324C68.5019 34.4588 68.9841 34.3312 69.2791 34.076C69.5774 33.8175 69.7266 33.486 69.7266 33.0817C69.7266 32.7801 69.652 32.5083 69.5028 32.2663C69.3537 32.0211 69.1416 31.8288 68.8665 31.6896C68.5914 31.5471 68.2633 31.4759 67.8821 31.4759H65.8487V34.4588ZM65.8487 30.1484H67.6733C67.9915 30.1484 68.2782 30.0904 68.5334 29.9744C68.7886 29.8551 68.9891 29.6877 69.1349 29.4723C69.2841 29.2536 69.3587 28.995 69.3587 28.6967C69.3587 28.3023 69.2195 27.9775 68.9411 27.7223C68.666 27.4671 68.2566 27.3395 67.7131 27.3395H65.8487V30.1484ZM74.2445 38.8636C73.9992 38.8636 73.7722 38.8438 73.5634 38.804C73.3579 38.7675 73.1938 38.7244 73.0712 38.6747L73.4888 37.2727C73.7507 37.349 73.9843 37.3854 74.1898 37.3821C74.3953 37.3788 74.5759 37.3142 74.7317 37.1882C74.8908 37.0656 75.025 36.8601 75.1344 36.5717L75.2885 36.1591L72.5194 28.3636H74.4284L76.1884 34.1307H76.2679L78.0328 28.3636H79.9469L76.8894 36.9247C76.7469 37.3291 76.5579 37.6754 76.3226 37.9638C76.0873 38.2554 75.7989 38.4775 75.4576 38.63C75.1195 38.7857 74.7151 38.8636 74.2445 38.8636ZM84.7445 36V25.8182H86.589V30.1286H91.307V25.8182H93.1564V36H91.307V31.6747H86.589V36H84.7445ZM98.4636 36.1491C97.698 36.1491 97.0368 35.9901 96.4799 35.6719C95.9264 35.3504 95.5005 34.8963 95.2022 34.3097C94.9039 33.7197 94.7548 33.0253 94.7548 32.2266C94.7548 31.4411 94.9039 30.7517 95.2022 30.1584C95.5038 29.5618 95.9248 29.0978 96.465 28.7663C97.0053 28.4316 97.64 28.2642 98.3691 28.2642C98.8398 28.2642 99.2839 28.3404 99.7015 28.4929C100.122 28.642 100.494 28.8741 100.815 29.1889C101.14 29.5038 101.395 29.9048 101.581 30.392C101.766 30.8759 101.859 31.4527 101.859 32.1222V32.674H95.6V31.4609H100.134C100.131 31.1162 100.056 30.8097 99.9103 30.5412C99.7645 30.2694 99.5607 30.0556 99.2988 29.8999C99.0403 29.7441 98.7387 29.6662 98.394 29.6662C98.0261 29.6662 97.7029 29.7557 97.4245 29.9347C97.1461 30.1103 96.929 30.3423 96.7733 30.6307C96.6208 30.9157 96.5429 31.2289 96.5396 31.5703V32.6293C96.5396 33.0734 96.6208 33.4545 96.7832 33.7727C96.9456 34.0876 97.1726 34.3295 97.4643 34.4986C97.756 34.6643 98.0974 34.7472 98.4885 34.7472C98.7503 34.7472 98.9873 34.7107 99.1994 34.6378C99.4115 34.5616 99.5955 34.4505 99.7512 34.3047C99.907 34.1589 100.025 33.9782 100.104 33.7628L101.785 33.9517C101.679 34.3958 101.476 34.7836 101.178 35.1151C100.883 35.4432 100.505 35.6984 100.045 35.8807C99.5839 36.0597 99.0569 36.1491 98.4636 36.1491ZM108.249 32.7884V28.3636H110.049V36H108.304V34.6428H108.224C108.052 35.0703 107.768 35.42 107.374 35.6918C106.983 35.9635 106.501 36.0994 105.927 36.0994C105.427 36.0994 104.984 35.9884 104.6 35.7663C104.219 35.541 103.92 35.2145 103.705 34.7869C103.489 34.3561 103.382 33.8357 103.382 33.2259V28.3636H105.181V32.9474C105.181 33.4313 105.314 33.8158 105.579 34.1009C105.844 34.3859 106.192 34.5284 106.623 34.5284C106.888 34.5284 107.145 34.4638 107.394 34.3345C107.642 34.2053 107.846 34.013 108.005 33.7578C108.168 33.4993 108.249 33.1761 108.249 32.7884ZM111.899 36V28.3636H113.644V29.6364H113.724C113.863 29.1955 114.102 28.8558 114.44 28.6172C114.781 28.3752 115.171 28.2543 115.608 28.2543C115.708 28.2543 115.819 28.2592 115.941 28.2692C116.067 28.2758 116.172 28.2874 116.254 28.304V29.9595C116.178 29.933 116.057 29.9098 115.892 29.8899C115.729 29.8667 115.572 29.8551 115.419 29.8551C115.091 29.8551 114.796 29.9264 114.534 30.0689C114.276 30.2081 114.072 30.402 113.923 30.6506C113.774 30.8991 113.699 31.1858 113.699 31.5107V36H111.899ZM117.45 36V28.3636H119.25V36H117.45ZM118.355 27.2798C118.07 27.2798 117.825 27.1854 117.619 26.9964C117.414 26.8042 117.311 26.5739 117.311 26.3054C117.311 26.0336 117.414 25.8033 117.619 25.6143C117.825 25.4221 118.07 25.326 118.355 25.326C118.643 25.326 118.889 25.4221 119.091 25.6143C119.296 25.8033 119.399 26.0336 119.399 26.3054C119.399 26.5739 119.296 26.8042 119.091 26.9964C118.889 27.1854 118.643 27.2798 118.355 27.2798ZM127.136 30.3821L125.495 30.5611C125.449 30.3954 125.368 30.2396 125.252 30.0938C125.139 29.9479 124.987 29.8303 124.794 29.7408C124.602 29.6513 124.367 29.6065 124.088 29.6065C123.714 29.6065 123.399 29.6877 123.144 29.8501C122.892 30.0125 122.768 30.223 122.771 30.4815C122.768 30.7036 122.849 30.8842 123.015 31.0234C123.184 31.1626 123.462 31.277 123.85 31.3665L125.152 31.6449C125.875 31.8007 126.412 32.0476 126.763 32.3857C127.118 32.7237 127.297 33.1662 127.3 33.7131C127.297 34.1937 127.156 34.6179 126.877 34.9858C126.602 35.3504 126.22 35.6354 125.729 35.8409C125.239 36.0464 124.675 36.1491 124.039 36.1491C123.104 36.1491 122.352 35.9536 121.782 35.5625C121.212 35.1681 120.872 34.6196 120.762 33.9169L122.517 33.7479C122.597 34.0926 122.766 34.3527 123.025 34.5284C123.283 34.7041 123.619 34.7919 124.034 34.7919C124.461 34.7919 124.804 34.7041 125.063 34.5284C125.325 34.3527 125.456 34.1357 125.456 33.8771C125.456 33.6584 125.371 33.4777 125.202 33.3352C125.036 33.1927 124.778 33.0833 124.426 33.0071L123.124 32.7337C122.391 32.5812 121.85 32.3243 121.498 31.9631C121.147 31.5985 120.973 31.1378 120.976 30.581C120.973 30.1103 121.1 29.7027 121.359 29.358C121.621 29.0099 121.984 28.7415 122.448 28.5526C122.915 28.3603 123.454 28.2642 124.064 28.2642C124.958 28.2642 125.663 28.4548 126.176 28.8359C126.694 29.2171 127.013 29.7325 127.136 30.3821ZM132.597 28.3636V29.7557H128.207V28.3636H132.597ZM129.291 26.5341H131.091V33.7031C131.091 33.9451 131.127 34.1307 131.2 34.2599C131.277 34.3859 131.376 34.4721 131.499 34.5185C131.621 34.5649 131.757 34.5881 131.906 34.5881C132.019 34.5881 132.122 34.5798 132.214 34.5632C132.311 34.5466 132.384 34.5317 132.433 34.5185L132.737 35.9254C132.64 35.9586 132.503 35.995 132.324 36.0348C132.148 36.0746 131.933 36.0978 131.678 36.1044C131.227 36.1177 130.821 36.0497 130.46 35.9006C130.098 35.7481 129.812 35.5128 129.599 35.1946C129.391 34.8764 129.288 34.4787 129.291 34.0014V26.5341Z" fill="#01E3F5"/>
  <path fill-rule="evenodd" clip-rule="evenodd" d="M138 33L138 29L196 31L138 33Z" fill="#01E3F5"/>
</svg>
  